<?xml version="1.0" standalone="no"?>
<!DOCTYPE svg PUBLIC "-//W3C//DTD SVG 20010904//EN"
 "http://www.w3.org/TR/2001/REC-SVG-20010904/DTD/svg10.dtd">
<svg version="1.0" xmlns="http://www.w3.org/2000/svg"
 width="1682.000000pt" height="1311.000000pt" viewBox="0 0 1682.000000 1311.000000"
 preserveAspectRatio="xMidYMid meet">
<metadata>
Created by potrace 1.16, written by Peter Selinger 2001-2019
</metadata>
<g transform="translate(0.000000,1311.000000) scale(0.100000,-0.100000)"
fill="#000000" stroke="none">
<path d="M0 6555 l0 -6555 8410 0 8410 0 0 6555 0 6555 -8410 0 -8410 0 0
-6555z m12920 3790 c490 -62 1004 -253 1409 -524 653 -438 1126 -1077 1349
-1821 245 -818 158 -1734 -234 -2477 -253 -479 -573 -852 -987 -1151 l-98 -71
982 -993 c540 -546 1005 -1024 1034 -1063 150 -199 182 -488 77 -700 -122
-246 -342 -385 -611 -387 -152 -2 -303 45 -406 126 -35 27 -348 343 -1800
1815 -172 174 -295 290 -340 321 -168 113 -366 208 -575 274 l-113 36 -4821 0
c-4137 0 -4831 2 -4888 15 -86 18 -224 82 -290 135 -111 88 -205 241 -234 380
-23 106 -14 259 20 365 61 190 208 337 426 427 l55 23 4895 5 c4663 5 4900 6
5000 23 224 39 433 105 605 190 44 22 141 80 215 130 110 74 162 118 285 241
245 246 379 457 481 759 82 242 110 429 101 689 -9 300 -75 554 -211 827 -277
550 -838 961 -1436 1051 -55 8 -1401 11 -4975 13 -4640 2 -4903 3 -4960 20
-109 31 -238 102 -302 165 -78 76 -151 190 -182 282 -22 66 -25 92 -25 215 0
123 3 149 26 216 27 81 105 205 171 272 75 75 229 156 337 178 19 4 2256 7
4970 8 4259 1 4951 -1 5050 -14z"/>
</g>
</svg>
